<?xml version="1.0" encoding="iso-8859-1"?>
<!-- Uploaded to: SVG Repo, www.svgrepo.com, Generator: SVG Repo Mixer Tools -->
<svg fill="#000000" height="800px" width="800px" version="1.1" id="Layer_1" xmlns="http://www.w3.org/2000/svg" xmlns:xlink="http://www.w3.org/1999/xlink" 
	 viewBox="0 0 511.999 511.999" xml:space="preserve">
<g>
	<g>
		<path d="M427.573,160.442c34.866-37.368,34.115-96.122-2.3-132.536c-37.207-37.207-97.75-37.207-134.958,0L276.82,41.401
			l55.527,55.526l-20.629,20.629H211.47V62.809L126.625,6.247l-21.174,31.76l67.844,45.23v34.32h-63.04l-5.699,8.143
			c-29.52,42.193-45.778,95.785-45.778,150.906c0,62.193,20.075,120.821,56.527,165.086C152.644,487.03,202.61,511.999,256,511.999
			s103.355-24.969,140.694-70.307c36.452-44.264,56.527-102.892,56.527-165.086C453.222,235.696,444.259,195.633,427.573,160.442z
			 M353.068,155.729l-33.447,33.447l-33.447-33.447H353.068z M256.001,306.779l36.628,36.628l-36.628,36.628l-36.628-36.628
			L256.001,306.779z M192.381,316.416l-36.628-36.628l36.628-36.628l36.628,36.628L192.381,316.416z M282.992,279.787l36.628-36.628
			l36.628,36.628l-36.628,36.628L282.992,279.787z M292.629,216.168l-36.628,36.628l-36.628-36.628l36.628-36.628L292.629,216.168z
			 M225.829,155.729l-33.447,33.447l-33.447-33.447H225.829z M121.266,172.044l44.124,44.124l-36.628,36.628l-26.501-26.501
			C106.346,207.169,112.75,188.879,121.266,172.044z M123.405,385.392c-8.688-16.229-15.49-34.135-20.02-53.237l25.377-25.377
			l36.628,36.628L123.405,385.392z M145.034,417.746l47.348-47.348l36.628,36.628l-45.254,45.254
			C169.464,443.206,156.425,431.52,145.034,417.746z M256.001,473.828c-12.018,0-23.726-1.672-34.99-4.82l34.99-34.991l34.99,34.991
			C279.727,472.156,268.019,473.828,256.001,473.828z M328.246,452.281l-45.254-45.254l36.628-36.628l47.348,47.348
			C355.579,431.52,342.539,443.206,328.246,452.281z M388.597,385.392l-41.985-41.985l36.628-36.628l25.377,25.377
			C404.087,351.258,397.285,369.163,388.597,385.392z M383.24,252.796l-36.628-36.628l44.124-44.124
			c8.517,16.836,14.921,35.126,19.006,54.251L383.24,252.796z M409.464,120.062l-76.35-76.35
			c21.281-10.137,47.571-6.412,65.167,11.184C415.876,72.491,419.604,98.782,409.464,120.062z"/>
	</g>
</g>
</svg>