<?xml version="1.0" encoding="iso-8859-1"?>
<!-- Uploaded to: SVG Repo, www.svgrepo.com, Generator: SVG Repo Mixer Tools -->
<svg fill="#000000" height="800px" width="800px" version="1.1" id="Layer_1" xmlns="http://www.w3.org/2000/svg" xmlns:xlink="http://www.w3.org/1999/xlink" 
	 viewBox="0 0 512 512" xml:space="preserve">
<g>
	<g>
		<path d="M477.715,117.678c-13.537-16.38-24.229-29.317-24.229-66.478V29.257H58.514V51.2c0,37.161-10.692,50.098-24.229,66.478
			C19.011,136.161,0,159.165,0,212.114c0,45.145,17.955,82.005,51.924,106.587c29.275,21.187,69.492,32.385,116.304,32.385h65.829
			v87.771h-95.086v43.886h234.057v-43.886h-95.086v-87.771h65.829c46.813,0,87.03-11.198,116.304-32.385
			C494.045,294.119,512,257.26,512,212.114C512,159.165,492.989,136.161,477.715,117.678z M101.187,73.143h309.625
			c2.169,18.556,7.049,32.566,12.987,43.886H88.2C94.139,105.709,99.019,91.699,101.187,73.143z M343.771,307.2H168.229
			c-37.386,0-124.343-9.266-124.343-95.086c0-25.486,5.029-39.578,12.556-51.2h399.116c7.526,11.622,12.556,25.714,12.556,51.2
			C468.114,297.934,381.158,307.2,343.771,307.2z"/>
	</g>
</g>
</svg>